<svg width="16" height="18" viewBox="0 0 16 18" fill="none" xmlns="http://www.w3.org/2000/svg">
<path d="M14.344 5.71001C13.637 5.71001 13.065 6.28201 13.065 6.98801V11.518C13.065 11.8572 13.1998 12.1825 13.4396 12.4224C13.6795 12.6623 14.0048 12.797 14.344 12.797C14.6832 12.797 15.0085 12.6623 15.2484 12.4224C15.4883 12.1825 15.623 11.8572 15.623 11.518V6.98801C15.623 6.28201 15.051 5.71001 14.344 5.71001V5.71001ZM1.65601 5.71001C0.949014 5.71001 0.377014 6.28201 0.377014 6.98801V11.518C0.377014 11.8572 0.511766 12.1825 0.751625 12.4224C0.991484 12.6623 1.3168 12.797 1.65601 12.797C1.99523 12.797 2.32054 12.6623 2.5604 12.4224C2.80026 12.1825 2.93501 11.8572 2.93501 11.518V6.98801C2.93515 6.82006 2.90215 6.65373 2.8379 6.49855C2.77366 6.34338 2.67944 6.20239 2.56064 6.08368C2.44183 5.96497 2.30078 5.87086 2.14555 5.80674C1.99032 5.74262 1.82396 5.70975 1.65601 5.71001V5.71001ZM10.545 1.90101L11.313 0.513011C11.3355 0.473495 11.3498 0.429912 11.3553 0.384794C11.3608 0.339676 11.3572 0.293922 11.3448 0.250193C11.3324 0.206463 11.3115 0.165628 11.2832 0.130061C11.2549 0.0944941 11.2198 0.0649042 11.18 0.0430106C11.1403 0.0206184 11.0965 0.00634321 11.0513 0.00101485C11.006 -0.00431351 10.9601 -0.000588792 10.9163 0.0119726C10.8724 0.0245339 10.8316 0.0456814 10.796 0.0741855C10.7604 0.10269 10.7308 0.137982 10.709 0.178011L9.92001 1.59801C9.33201 1.36301 8.68401 1.23001 8.00001 1.23001C7.31601 1.23001 6.66801 1.36201 6.08001 1.59701L5.29101 0.179011C5.26919 0.138982 5.23963 0.10369 5.20405 0.0751854C5.16847 0.0466813 5.12758 0.0255341 5.08376 0.0129727C5.03993 0.000411374 4.99405 -0.00331334 4.94877 0.00201502C4.90349 0.00734337 4.85973 0.0216183 4.82001 0.0440105C4.78038 0.0661005 4.7455 0.0957908 4.71736 0.131381C4.68922 0.166972 4.66837 0.207764 4.65602 0.251421C4.64366 0.295079 4.64004 0.340744 4.64536 0.385803C4.65068 0.430862 4.66483 0.474429 4.68701 0.514011L5.45501 1.90201C4.07201 2.69001 3.14801 4.09901 3.14801 5.71001C3.14801 5.72101 3.14801 5.73101 3.15001 5.74401C3.14801 5.75001 3.14801 5.75701 3.14801 5.76301V5.76401H12.851V5.71001C12.852 4.09901 11.928 2.69101 10.545 1.90101V1.90101ZM5.76001 3.86901C5.71451 3.86868 5.66952 3.85939 5.6276 3.84168C5.58569 3.82396 5.54768 3.79816 5.51573 3.76576C5.45122 3.70031 5.41535 3.61191 5.41601 3.52001C5.41668 3.42811 5.45382 3.34024 5.51927 3.27573C5.58472 3.21122 5.67312 3.17535 5.76501 3.17601C5.85691 3.17667 5.94478 3.21382 6.00929 3.27927C6.07381 3.34472 6.10968 3.43311 6.10901 3.52501C6.10835 3.61691 6.07121 3.70478 6.00576 3.76929C5.94031 3.8338 5.85191 3.86967 5.76001 3.86901ZM10.24 3.86901C10.1528 3.86237 10.0713 3.82304 10.0118 3.75889C9.95238 3.69473 9.91934 3.61048 9.91934 3.52301C9.91934 3.43554 9.95238 3.35129 10.0118 3.28714C10.0713 3.22298 10.1528 3.18365 10.24 3.17701C10.3318 3.17701 10.4198 3.21346 10.4847 3.27835C10.5496 3.34324 10.586 3.43125 10.586 3.52301C10.586 3.61478 10.5496 3.70278 10.4847 3.76767C10.4198 3.83256 10.3318 3.86901 10.24 3.86901V3.86901ZM3.14801 13.12C3.14801 13.766 3.67301 14.291 4.32201 14.291H4.90801V16.692C4.90801 17.0312 5.04277 17.3565 5.28263 17.5964C5.52248 17.8363 5.8478 17.971 6.18701 17.971C6.52623 17.971 6.85154 17.8363 7.0914 17.5964C7.33126 17.3565 7.46601 17.0312 7.46601 16.692V14.291H8.53201V16.692C8.53201 17.399 9.10401 17.97 9.80901 17.97C10.518 17.97 11.09 17.399 11.09 16.692V14.291H11.676C12.324 14.291 12.85 13.767 12.85 13.12V6.02801H3.14801V13.12Z" fill="#3DDC84"/>
</svg>
