<svg width="24" height="24" viewBox="0 0 24 24" fill="none" xmlns="http://www.w3.org/2000/svg">
<path d="M12 13.03C12.9858 13.03 13.785 12.2309 13.785 11.245C13.785 10.2592 12.9858 9.46002 12 9.46002C11.0141 9.46002 10.215 10.2592 10.215 11.245C10.215 12.2309 11.0141 13.03 12 13.03Z" fill="#61DBFB"/>
<path d="M7.00199 14.794L6.60699 14.693C3.67299 13.952 1.98999 12.692 1.98999 11.241C1.98999 9.78899 3.67399 8.52999 6.60699 7.78899L7.00199 7.68899L7.11299 8.07999C7.40953 9.10368 7.78947 10.1014 8.24899 11.063L8.33399 11.241L8.24899 11.419C7.78899 12.382 7.40799 13.38 7.11299 14.404L7.00199 14.794ZM6.42499 8.69899C4.19599 9.32699 2.82699 10.285 2.82699 11.241C2.82699 12.195 4.19499 13.154 6.42499 13.781C6.69799 12.913 7.02799 12.064 7.40999 11.241C7.02522 10.4166 6.69615 9.56738 6.42499 8.69899ZM16.997 14.794L16.887 14.402C16.5897 13.3781 16.2094 12.3801 15.75 11.418L15.665 11.241L15.75 11.062C16.21 10.101 16.589 9.10199 16.887 8.07799L16.997 7.68799L17.392 7.78799C20.327 8.52899 22.009 9.78799 22.009 11.241C22.009 12.693 20.326 13.952 17.392 14.693L16.997 14.794ZM16.587 11.241C16.987 12.107 17.32 12.959 17.574 13.781C19.804 13.154 21.173 12.195 21.173 11.241C21.173 10.285 19.805 9.32799 17.574 8.69899C17.3013 9.56711 16.9715 10.4163 16.587 11.241Z" fill="#61DBFB"/>
<path d="M6.41902 8.695L6.30902 8.305C5.48302 5.397 5.73302 3.314 6.99602 2.588C8.23102 1.873 10.218 2.718 12.299 4.853L12.583 5.145L12.299 5.436C11.5599 6.20469 10.8843 7.03207 10.279 7.91L10.166 8.072L9.97002 8.088C8.90561 8.1716 7.84978 8.34183 6.81302 8.597L6.41902 8.695ZM8.00102 3.166C7.77702 3.166 7.57902 3.215 7.41202 3.311C6.58402 3.788 6.43802 5.449 7.00802 7.691C7.89902 7.494 8.79802 7.353 9.70402 7.274C10.2285 6.53005 10.8007 5.8209 11.417 5.151C10.114 3.884 8.88402 3.166 8.00102 3.166ZM15.998 20.15C14.81 20.15 13.284 19.254 11.7 17.628L11.417 17.337L11.7 17.047C12.4393 16.2771 13.1151 15.4487 13.721 14.57L13.833 14.41L14.027 14.391C15.0918 14.3089 16.148 14.1393 17.185 13.884L17.58 13.784L17.691 14.175C18.513 17.081 18.264 19.167 17.003 19.893C16.6969 20.0665 16.3499 20.1553 15.998 20.15ZM12.583 17.33C13.885 18.597 15.116 19.316 15.998 19.316C16.223 19.316 16.421 19.266 16.587 19.171C17.416 18.693 17.563 17.029 16.991 14.787C16.101 14.985 15.201 15.127 14.293 15.206C13.7707 15.9511 13.1995 16.6607 12.583 17.33Z" fill="#61DBFB"/>
<path d="M17.58 8.69501L17.185 8.59601C16.1481 8.34004 15.0918 8.1698 14.027 8.08701L13.833 8.07001L13.721 7.90801C13.116 7.0296 12.44 6.20217 11.7 5.43401L11.417 5.14301L11.7 4.85301C13.78 2.71901 15.766 1.87401 17.003 2.58801C18.265 3.31501 18.516 5.39801 17.691 8.30501L17.58 8.69501ZM14.293 7.27401C15.247 7.35901 16.151 7.50201 16.991 7.69101C17.562 5.44901 17.416 3.78801 16.587 3.31001C15.763 2.83301 14.212 3.56301 12.583 5.15101C13.199 5.82101 13.771 6.52901 14.293 7.27401ZM8.00101 20.15C7.64914 20.155 7.30227 20.0663 6.99601 19.893C5.73301 19.167 5.48301 17.082 6.30801 14.175L6.41601 13.784L6.81101 13.884C7.77501 14.127 8.83701 14.298 9.96901 14.391L10.163 14.41L10.276 14.57C10.88 15.448 11.556 16.277 12.296 17.047L12.58 17.337L12.296 17.628C10.713 19.255 9.18701 20.15 8.00101 20.15ZM7.00801 14.788C6.43801 17.03 6.58401 18.694 7.41201 19.172C8.23701 19.642 9.78301 18.917 11.417 17.33C10.801 16.6599 10.2288 15.9508 9.70401 15.207C8.7971 15.1268 7.89648 14.9868 7.00801 14.788Z" fill="#61DBFB"/>
<path d="M12 15.313C11.313 15.313 10.608 15.284 9.90003 15.225L9.70403 15.208L9.59103 15.046C9.19179 14.4719 8.81614 13.8818 8.46503 13.277C8.11652 12.6707 7.79259 12.0505 7.49403 11.418L7.41003 11.241L7.49403 11.062C7.79303 10.43 8.11603 9.81002 8.46503 9.20402C8.81203 8.60802 9.19103 8.01202 9.59103 7.43402L9.70403 7.27402L9.90003 7.25602C11.2969 7.13902 12.7011 7.13902 14.098 7.25602L14.292 7.27502L14.405 7.43502C15.2048 8.58378 15.9073 9.79733 16.505 11.063L16.588 11.242L16.505 11.419C15.9089 12.6856 15.2064 13.8993 14.405 15.047L14.292 15.209L14.098 15.226C13.392 15.283 12.686 15.313 12 15.313ZM10.166 14.409C11.401 14.502 12.599 14.502 13.833 14.409C14.5219 13.4002 15.1343 12.3413 15.665 11.241C15.1362 10.1398 14.5237 9.08068 13.833 8.07302C12.6125 7.97902 11.3866 7.97902 10.166 8.07302C9.47477 9.08032 8.86229 10.1395 8.33403 11.241C8.86591 12.3407 9.47824 13.3995 10.166 14.409Z" fill="#61DBFB"/>
</svg>
